<svg width="104.000000" height="104.000000" viewBox="0 0 104 104" fill="none" xmlns="http://www.w3.org/2000/svg" xmlns:xlink="http://www.w3.org/1999/xlink">
	<desc>
			Created with Pixso.
	</desc>
	<defs>
		<clipPath id="clip1_307">
			<rect id="fi_1496742" rx="0.000000" width="47.000000" height="47.000000" transform="translate(28.500000 28.500000)" fill="white" fill-opacity="0"/>
		</clipPath>
	</defs>
	<circle id="Ellipse 1" cx="52.000000" cy="52.000000" r="52.000000" fill="#FFFFFF" fill-opacity="1.000000"/>
	<rect id="fi_1496742" rx="0.000000" width="47.000000" height="47.000000" transform="translate(28.500000 28.500000)" fill="#FFFFFF" fill-opacity="0"/>
	<g clip-path="url(#clip1_307)">
		<path id="Vector" d="M52 32.17C51.59 32.17 51.26 31.85 51.26 31.44C51.26 30.14 48.97 29.51 48.94 29.5C48.55 29.4 48.31 29 48.42 28.6C48.52 28.21 48.92 27.98 49.31 28.08C49.45 28.11 52.73 28.98 52.73 31.44C52.73 31.85 52.4 32.17 52 32.17Z" fill="#51B1CE" fill-opacity="1.000000" fill-rule="nonzero"/>
		<path id="Vector" d="M52 32.17C51.59 32.17 51.26 31.85 51.26 31.44C51.26 28.98 54.54 28.11 54.68 28.08C55.07 27.98 55.47 28.21 55.58 28.61C55.68 29 55.44 29.4 55.05 29.5C55.02 29.51 52.73 30.14 52.73 31.44C52.73 31.85 52.4 32.17 52 32.17Z" fill="#51B1CE" fill-opacity="1.000000" fill-rule="nonzero"/>
		<path id="Vector" d="M48.52 71.19L48.52 66.34C48.52 65.94 48.19 65.61 47.78 65.61C47.38 65.61 47.05 65.94 47.05 66.34L47.05 71.19L44.47 73.77C44.18 74.06 44.18 74.52 44.47 74.81C44.75 75.09 45.22 75.09 45.5 74.81L47.05 73.26L47.05 75.2C47.05 75.61 47.38 75.94 47.78 75.94C48.19 75.94 48.52 75.61 48.52 75.2L48.52 73.26L50.06 74.81C50.21 74.95 50.39 75.02 50.58 75.02C50.77 75.02 50.96 74.95 51.1 74.81C51.39 74.52 51.39 74.06 51.1 73.77L48.52 71.19Z" fill="#FFA943" fill-opacity="1.000000" fill-rule="nonzero"/>
		<path id="Vector" d="M59.52 73.77L56.94 71.19L56.94 66.34C56.94 65.94 56.61 65.61 56.21 65.61C55.8 65.61 55.47 65.94 55.47 66.34L55.47 71.19L52.89 73.77C52.6 74.06 52.6 74.52 52.89 74.81C53.18 75.09 53.64 75.09 53.93 74.81L55.47 73.26L55.47 75.2C55.47 75.61 55.8 75.94 56.21 75.94C56.61 75.94 56.94 75.61 56.94 75.2L56.94 73.26L58.49 74.81C58.63 74.95 58.82 75.02 59 75.02C59.19 75.02 59.38 74.95 59.52 74.81C59.81 74.52 59.81 74.06 59.52 73.77Z" fill="#FFA943" fill-opacity="1.000000" fill-rule="nonzero"/>
		<path id="Vector" d="M34.67 48.66C34.67 48.66 28.19 46.37 28.19 44.82C28.19 43.26 30.74 43.79 30.74 43.79C30.74 43.79 27.13 41.3 28.19 40.22C29.26 39.14 30.99 40.22 30.99 40.22C30.99 40.22 28.05 37.76 29.16 36.65C30.27 35.53 34.03 36.01 36.64 41.48L67.35 41.48C69.96 36.01 73.72 35.53 74.83 36.65C75.94 37.76 73 40.22 73 40.22C73 40.22 74.73 39.14 75.8 40.22C76.86 41.3 73.25 43.79 73.25 43.79C73.25 43.79 75.8 43.26 75.8 44.82C75.8 46.37 69.32 48.66 69.32 48.66L34.67 48.66Z" fill="#51B1CE" fill-opacity="1.000000" fill-rule="nonzero"/>
		<path id="Vector" d="M69.49 51.65C69.49 39.95 61.66 30.46 52 30.46C42.33 30.46 34.5 39.95 34.5 51.65C34.5 63.35 42.33 67.1 52 67.1C61.66 67.1 69.49 63.35 69.49 51.65Z" fill="#6EC7EA" fill-opacity="1.000000" fill-rule="nonzero"/>
		<path id="Vector" d="M51.87 67.1C42.26 67.06 34.5 63.3 34.5 51.65C34.5 39.95 42.33 30.46 52 30.46C46.55 30.46 42.13 39.95 42.13 51.65C42.13 63.26 46.48 67.04 51.87 67.1Z" fill="#51B1CE" fill-opacity="1.000000" fill-rule="nonzero"/>
		<path id="Vector" d="M65.59 62.7C62.38 65.89 57.48 67.1 52 67.1C46.51 67.1 41.61 65.89 38.4 62.7C41.61 57.92 46.51 54.86 52 54.86C57.48 54.86 62.38 57.92 65.59 62.7Z" fill="#E6E6E6" fill-opacity="1.000000" fill-rule="nonzero"/>
		<path id="Vector" d="M38.4 62.7C41.58 65.86 46.41 67.07 51.84 67.1C47.62 67.04 44.05 64.7 42.7 58.09C41.07 59.34 39.61 60.9 38.4 62.7Z" fill="#CCCCCC" fill-opacity="1.000000" fill-rule="nonzero"/>
		<path id="Vector" d="M56.75 47.78C56.71 48.31 56.45 48.84 55.98 49.18L53.12 51.28C52.78 51.53 52.39 51.65 52 51.65C51.6 51.65 51.21 51.53 50.88 51.28C50.88 51.28 50.87 51.28 50.87 51.28L48.01 49.18C48.01 49.18 48 49.18 48 49.17C47.99 49.17 47.99 49.17 47.98 49.16C47.53 48.82 47.27 48.3 47.24 47.78C47.21 47.29 47.37 46.79 47.72 46.39C47.73 46.38 47.73 46.38 47.74 46.37C47.74 46.37 47.74 46.37 47.74 46.36L50.61 43.28C50.61 43.28 50.61 43.28 50.61 43.28C50.99 42.88 51.49 42.68 52 42.68C52.5 42.68 53.01 42.88 53.38 43.28C53.38 43.28 53.38 43.28 53.38 43.28L56.25 46.36C56.25 46.37 56.25 46.37 56.25 46.37C56.26 46.38 56.26 46.38 56.27 46.39C56.62 46.78 56.78 47.29 56.75 47.78Z" fill="#FF4370" fill-opacity="1.000000" fill-rule="nonzero"/>
		<path id="Vector" d="M52 42.68L52 51.65C51.6 51.65 51.21 51.53 50.88 51.28C50.88 51.28 50.88 51.28 50.87 51.28L48.01 49.18C48.01 49.18 48 49.18 48 49.17C47.1 48.5 46.98 47.2 47.74 46.37C47.74 46.37 47.74 46.37 47.74 46.36L50.61 43.28C50.61 43.28 50.61 43.28 50.61 43.28C50.99 42.88 51.49 42.68 52 42.68Z" fill="#E52E62" fill-opacity="1.000000" fill-rule="nonzero"/>
		<path id="Vector" d="M56.75 47.78C55.22 48.33 53.62 48.6 52 48.6C52 48.6 52 48.6 51.99 48.6C50.37 48.6 48.77 48.32 47.24 47.78C47.21 47.29 47.37 46.79 47.72 46.39C49.1 46.88 50.53 47.13 51.99 47.13C52 47.13 52 47.13 52 47.13C53.46 47.13 54.89 46.88 56.27 46.39C56.62 46.78 56.78 47.29 56.75 47.78Z" fill="#CC1F59" fill-opacity="1.000000" fill-rule="nonzero"/>
		<path id="Vector" d="M46.75 44.18C46.56 44.18 46.38 44.11 46.23 43.97C45.73 43.47 45.06 43.19 44.35 43.19C43.64 43.19 42.97 43.47 42.46 43.97C42.18 44.26 41.71 44.26 41.43 43.97C41.14 43.68 41.14 43.22 41.43 42.93C42.21 42.15 43.24 41.72 44.35 41.72C45.45 41.72 46.49 42.15 47.27 42.93C47.56 43.22 47.56 43.68 47.27 43.97C47.13 44.11 46.94 44.18 46.75 44.18Z" fill="#3E475B" fill-opacity="1.000000" fill-rule="nonzero"/>
		<path id="Vector" d="M62.05 44.18C61.86 44.18 61.67 44.11 61.53 43.97C61.02 43.47 60.35 43.19 59.64 43.19C58.93 43.19 58.26 43.47 57.76 43.97C57.47 44.26 57.01 44.26 56.72 43.97C56.43 43.68 56.43 43.22 56.72 42.93C57.5 42.15 58.54 41.72 59.64 41.72C60.75 41.72 61.78 42.15 62.56 42.93C62.85 43.22 62.85 43.68 62.56 43.97C62.42 44.11 62.23 44.18 62.05 44.18Z" fill="#3E475B" fill-opacity="1.000000" fill-rule="nonzero"/>
		<path id="Vector" d="M63.1 47.95C63.1 48.79 62.12 49.48 60.9 49.48C59.69 49.48 58.7 48.79 58.7 47.95C58.7 47.1 59.69 46.42 60.9 46.42C62.12 46.42 63.1 47.1 63.1 47.95Z" fill="#51B1CE" fill-opacity="1.000000" fill-rule="evenodd"/>
		<path id="Vector" d="M44.72 47.95C44.72 48.79 43.74 49.48 42.52 49.48C41.3 49.48 40.32 48.79 40.32 47.95C40.32 47.1 41.3 46.42 42.52 46.42C43.74 46.42 44.72 47.1 44.72 47.95Z" fill="#51B1CE" fill-opacity="1.000000" fill-rule="evenodd"/>
	</g>
</svg>
