<svg width="104.000000" height="104.000000" viewBox="0 0 104 104" fill="none" xmlns="http://www.w3.org/2000/svg" xmlns:xlink="http://www.w3.org/1999/xlink">
	<desc>
			Created with Pixso.
	</desc>
	<defs>
		<clipPath id="clip1_214">
			<rect id="fi_2171990" rx="0.000000" width="47.000000" height="47.000000" transform="translate(28.500000 28.500000)" fill="white" fill-opacity="0"/>
		</clipPath>
	</defs>
	<circle id="Ellipse 1" cx="52.000000" cy="52.000000" r="52.000000" fill="#FFFFFF" fill-opacity="1.000000"/>
	<rect id="fi_2171990" rx="0.000000" width="47.000000" height="47.000000" transform="translate(28.500000 28.500000)" fill="#FFFFFF" fill-opacity="0"/>
	<g clip-path="url(#clip1_214)">
		<path id="Vector" d="M70.72 43.8C72.17 39.04 72.01 34.02 71.72 31.08C71.68 30.75 71.58 30.43 71.41 30.15C71.25 29.86 71.02 29.62 70.75 29.43C70.48 29.24 70.17 29.11 69.84 29.05C69.52 28.99 69.18 29 68.86 29.08C63.19 30.54 59.83 33 57.94 34.96C55.99 34.51 53.99 34.29 52 34.3C50 34.29 48 34.51 46.06 34.96C44.16 33 40.8 30.54 35.13 29.08C34.81 29 34.47 28.99 34.15 29.05C33.82 29.11 33.51 29.24 33.24 29.43C32.97 29.62 32.74 29.86 32.58 30.15C32.41 30.43 32.31 30.75 32.27 31.08C31.98 34.02 31.82 39.04 33.27 43.8C30.4 48.1 29.03 54.75 29.03 59.83C29.03 64.37 36.61 74.96 52 74.96C67.39 74.96 74.96 64.37 74.96 59.83C74.96 54.75 73.59 48.1 70.72 43.8Z" fill="#F29555" fill-opacity="1.000000" fill-rule="nonzero"/>
		<path id="Vector" d="M64.04 56.37C59.29 56.37 57.24 61.07 52 61.07C46.75 61.07 44.7 56.37 39.95 56.37C33.06 56.37 30.13 62.16 29.81 62.86C32.1 67.92 39.45 74.96 52 74.96C64.54 74.96 71.89 67.92 74.18 62.86C73.86 62.16 70.93 56.37 64.04 56.37Z" fill="#F7E3CD" fill-opacity="1.000000" fill-rule="nonzero"/>
		<path id="Vector" d="M51.9 71.47C41.51 71.47 34.17 67.32 29.83 62.8L29.81 62.86C32.1 67.92 39.45 74.96 52 74.96C64.54 74.96 71.89 67.92 74.18 62.86C74.17 62.82 74.13 62.75 74.09 62.67C69.77 67.24 62.4 71.47 51.9 71.47Z" fill="#F2C59E" fill-opacity="1.000000" fill-rule="nonzero"/>
		<path id="Vector" d="M39.81 37.15C38.62 35.9 36.79 34.02 36.08 33.56C33.27 31.7 32.09 34.12 32.09 34.12C32.03 36.83 32.23 40.19 33.17 43.45C36.12 40.52 41.21 37.92 41.21 37.92C40.67 37.82 40.18 37.55 39.81 37.15Z" fill="#F7E3CD" fill-opacity="1.000000" fill-rule="nonzero"/>
		<path id="Vector" d="M64.18 37.15C65.37 35.9 67.2 34.02 67.91 33.56C70.72 31.7 71.9 34.12 71.9 34.12C71.96 36.83 71.76 40.19 70.82 43.45C67.87 40.52 62.78 37.92 62.78 37.92C63.32 37.82 63.81 37.55 64.18 37.15Z" fill="#F7E3CD" fill-opacity="1.000000" fill-rule="nonzero"/>
		<path id="Vector" d="M47.47 46.43C47.47 47.39 46.5 48.18 45.31 48.18C44.11 48.18 43.14 47.02 43.14 46.05C43.14 45.08 44.11 44.67 45.31 44.67C46.5 44.67 47.47 45.46 47.47 46.43Z" fill="#F7E3CD" fill-opacity="1.000000" fill-rule="nonzero"/>
		<path id="Vector" d="M56.67 46.43C56.67 47.39 57.64 48.18 58.83 48.18C60.02 48.18 61 47.02 61 46.05C61 45.08 60.03 44.67 58.83 44.67C57.64 44.67 56.67 45.46 56.67 46.43Z" fill="#F7E3CD" fill-opacity="1.000000" fill-rule="nonzero"/>
		<path id="Vector" d="M52.07 63.3C52.07 63.3 49.75 66.56 45.61 65.57L45.61 65.73C45.61 65.73 46.52 70.1 52 70.1C57.47 70.1 58.38 65.73 58.38 65.73L58.38 65.61C54.33 66.49 52.07 63.3 52.07 63.3Z" fill="#AA0C18" fill-opacity="1.000000" fill-rule="nonzero"/>
		<path id="Vector" d="M71.82 43.63C73.15 38.97 73.05 34.17 72.73 30.92C72.68 30.46 72.54 30.01 72.3 29.6C72.07 29.2 71.74 28.85 71.36 28.58C70.98 28.31 70.54 28.13 70.08 28.05C69.62 27.96 69.15 27.98 68.69 28.1C63.07 29.55 59.63 31.97 57.66 33.88C53.92 33.12 50.07 33.12 46.33 33.88C44.36 31.97 40.92 29.55 35.3 28.1C34.84 27.98 34.37 27.96 33.91 28.05C33.45 28.13 33.01 28.31 32.63 28.58C32.25 28.85 31.92 29.2 31.69 29.6C31.45 30.01 31.31 30.46 31.26 30.92C30.94 34.17 30.85 38.97 32.17 43.63C29.1 48.5 28 55.38 28 59.86C28 62.31 29.87 66.36 34.07 69.89C37.37 72.67 43.17 75.99 52 75.99C60.82 75.99 66.62 72.67 69.92 69.89C74.12 66.36 76 62.31 76 59.86C76 55.38 74.89 48.5 71.82 43.63ZM69.16 29.92C69.35 29.87 69.55 29.86 69.74 29.9C69.93 29.93 70.12 30.01 70.28 30.12C70.44 30.24 70.57 30.38 70.67 30.55C70.77 30.72 70.83 30.91 70.85 31.11C70.88 31.38 70.91 31.69 70.93 32.02C70.88 32 70.82 31.98 70.76 31.97C69.74 31.68 68.62 31.94 67.45 32.72C66.83 33.12 65.52 34.38 63.54 36.46C63.32 36.7 63.03 36.87 62.71 36.94C62.39 37.01 62.05 36.99 61.75 36.87C60.88 36.53 59.8 35.95 59.14 35.06C60.97 33.35 64.09 31.23 69.16 29.92ZM33.71 30.12C33.94 29.96 34.21 29.88 34.49 29.88C34.6 29.88 34.72 29.89 34.83 29.92C39.9 31.23 43.03 33.35 44.85 35.06C44.19 35.95 43.11 36.53 42.25 36.87C41.94 36.99 41.6 37.01 41.28 36.94C40.96 36.87 40.67 36.7 40.44 36.46C38.47 34.38 37.15 33.12 36.54 32.72C35.37 31.94 34.25 31.68 33.23 31.97C33.17 31.98 33.11 32 33.05 32.02C33.08 31.69 33.11 31.38 33.13 31.11C33.15 30.91 33.21 30.72 33.31 30.55C33.42 30.38 33.55 30.23 33.71 30.12ZM68.71 68.45C65.64 71.03 60.25 74.11 52 74.11C43.74 74.11 38.35 71.03 35.28 68.45C31.73 65.46 29.88 61.87 29.88 59.86C29.88 55.19 31.14 48.59 33.96 44.33C34.63 43.55 35.37 42.83 36.19 42.2C36.39 42.05 36.52 41.83 36.56 41.58C36.59 41.34 36.53 41.08 36.38 40.89C36.23 40.69 36.01 40.55 35.76 40.52C35.51 40.48 35.26 40.55 35.06 40.7C34.58 41.06 34.11 41.46 33.68 41.89C33.07 39.22 32.93 36.54 32.96 34.34C33.14 34.07 33.42 33.87 33.73 33.78C34.21 33.65 34.81 33.83 35.51 34.29C35.98 34.59 37.31 35.89 39.09 37.76C39.57 38.27 40.2 38.62 40.88 38.78C41.57 38.93 42.29 38.87 42.94 38.62C44.18 38.13 45.77 37.25 46.67 35.73C50.19 35.01 53.82 35.01 57.34 35.73C58.24 37.25 59.83 38.13 61.06 38.62C61.72 38.87 62.44 38.93 63.12 38.78C63.81 38.62 64.44 38.27 64.92 37.76C66.69 35.89 68.03 34.59 68.49 34.29C69.19 33.83 69.79 33.65 70.28 33.78C70.59 33.87 70.86 34.07 71.05 34.34C71.09 36.53 70.94 39.22 70.33 41.89C69.89 41.46 69.43 41.06 68.94 40.7C68.84 40.62 68.73 40.57 68.61 40.54C68.49 40.51 68.37 40.5 68.24 40.52C68.12 40.53 68 40.57 67.9 40.64C67.79 40.7 67.7 40.78 67.62 40.88C67.55 40.98 67.5 41.09 67.47 41.21C67.44 41.33 67.43 41.46 67.45 41.58C67.46 41.7 67.5 41.82 67.57 41.93C67.63 42.03 67.71 42.13 67.81 42.2C68.63 42.83 69.38 43.55 70.04 44.34C72.86 48.59 74.12 55.19 74.12 59.86C74.11 61.87 72.26 65.46 68.71 68.45Z" fill="#000000" fill-opacity="1.000000" fill-rule="nonzero"/>
		<path id="Vector" d="M45.31 51.58C45.31 52.94 44.21 54.04 42.85 54.04C41.5 54.04 40.4 52.94 40.4 51.58C40.4 50.23 41.5 49.13 42.85 49.13C44.21 49.13 45.31 50.23 45.31 51.58Z" fill="#000000" fill-opacity="1.000000" fill-rule="evenodd"/>
		<path id="Vector" d="M61.28 49.13C60.79 49.13 60.32 49.27 59.92 49.54C59.51 49.81 59.2 50.19 59.01 50.64C58.82 51.09 58.78 51.59 58.87 52.06C58.96 52.54 59.2 52.98 59.54 53.32C59.89 53.67 60.32 53.9 60.8 54C61.28 54.09 61.77 54.04 62.22 53.86C62.67 53.67 63.05 53.35 63.32 52.95C63.59 52.55 63.74 52.07 63.74 51.58C63.74 50.93 63.48 50.31 63.02 49.85C62.56 49.39 61.93 49.13 61.28 49.13Z" fill="#000000" fill-opacity="1.000000" fill-rule="nonzero"/>
		<path id="Vector" d="M59.31 64.34C55.81 65.75 53.62 63.67 53 62.97L53 62.83C53.93 62.63 54.79 62.19 55.48 61.54C56.39 60.69 56.93 59.63 56.93 58.67C56.93 56.74 54.8 55.22 52.07 55.22C49.34 55.22 47.2 56.74 47.2 58.67C47.2 60.37 48.89 62.38 51.13 62.83L51.13 62.97C50.51 63.68 48.32 65.75 44.83 64.34C44.71 64.29 44.59 64.27 44.46 64.27C44.34 64.27 44.22 64.29 44.1 64.34C43.99 64.39 43.88 64.46 43.8 64.54C43.71 64.63 43.64 64.74 43.59 64.85C43.55 64.97 43.52 65.09 43.53 65.22C43.53 65.34 43.55 65.46 43.6 65.58C43.65 65.69 43.72 65.79 43.81 65.88C43.9 65.97 44.01 66.03 44.13 66.08C44.36 66.17 44.58 66.25 44.8 66.32C45.07 67.12 45.49 67.87 46.03 68.52C46.99 69.67 48.81 71.04 52 71.04C55.18 71.04 57 69.67 57.96 68.52C58.49 67.88 58.9 67.15 59.17 66.37C59.44 66.29 59.72 66.19 60.01 66.08C60.23 65.98 60.41 65.8 60.51 65.57C60.6 65.35 60.61 65.09 60.51 64.86C60.42 64.64 60.24 64.45 60.02 64.35C59.79 64.26 59.54 64.25 59.31 64.34ZM52 69.17C49.07 69.17 47.67 67.76 47.03 66.69L47.15 66.69C48.34 66.7 49.51 66.39 50.55 65.81C51.1 65.5 51.61 65.12 52.07 64.69C52.53 65.12 53.04 65.5 53.59 65.81C54.62 66.38 55.78 66.69 56.96 66.69C56.82 66.93 56.65 67.16 56.47 67.37C55.44 68.56 53.94 69.17 52 69.17Z" fill="#000000" fill-opacity="1.000000" fill-rule="nonzero"/>
	</g>
</svg>
