<svg width="104.000000" height="104.000000" viewBox="0 0 104 104" fill="none" xmlns="http://www.w3.org/2000/svg" xmlns:xlink="http://www.w3.org/1999/xlink">
	<desc>
			Created with Pixso.
	</desc>
	<defs>
		<clipPath id="clip1_264">
			<rect id="fi_616408" rx="0.000000" width="47.000000" height="47.000000" transform="translate(28.500000 28.500000)" fill="white" fill-opacity="0"/>
		</clipPath>
	</defs>
	<circle id="Ellipse 1" cx="52.000000" cy="52.000000" r="52.000000" fill="#FFFFFF" fill-opacity="1.000000"/>
	<rect id="fi_616408" rx="0.000000" width="47.000000" height="47.000000" transform="translate(28.500000 28.500000)" fill="#FFFFFF" fill-opacity="0"/>
	<g clip-path="url(#clip1_264)">
		<path id="Vector" d="M69.03 32.25L61.29 32.25C58.48 33.37 57.86 31.48 52 31.48C46.13 31.48 45.51 33.37 42.7 32.25L34.96 32.25L33.93 51.7C34.58 59.35 39.32 63.51 43.06 65.03L60.93 65.03C64.67 63.51 69.41 59.35 70.06 51.7L69.03 32.25Z" fill="#F5DCB4" fill-opacity="1.000000" fill-rule="nonzero"/>
		<path id="Vector" d="M61.29 32.25C70 34.86 65.26 48.32 70.87 54.13C71.68 54.97 73.1 54.6 73.44 53.49C73.88 52.02 74.32 49.7 74.25 46.38C74.16 41.83 76 41.54 76 41.54C76 41.54 73.67 30.7 66.7 30.7C64.38 30.7 61.29 32.25 61.29 32.25Z" fill="#965A50" fill-opacity="1.000000" fill-rule="nonzero"/>
		<path id="Vector" d="M43.87 52.38C42.38 52.38 41.16 51.16 41.16 49.67L41.16 48.12C41.16 46.63 42.38 45.41 43.87 45.41C45.36 45.41 46.58 46.63 46.58 48.12L46.58 49.67C46.58 51.16 45.36 52.38 43.87 52.38Z" fill="#4B3F4E" fill-opacity="1.000000" fill-rule="nonzero"/>
		<path id="Vector" d="M43.87 45.41C43.73 45.41 43.61 45.44 43.48 45.45L43.48 49.29C43.48 50.14 44.17 50.83 45.03 50.83C45.88 50.83 46.58 50.14 46.58 49.29L46.58 48.12C46.58 46.63 45.36 45.41 43.87 45.41Z" fill="#5D5360" fill-opacity="1.000000" fill-rule="nonzero"/>
		<path id="Vector" d="M45.03 47.35C45.03 47.99 44.51 48.51 43.87 48.51C43.22 48.51 42.7 47.99 42.7 47.35C42.7 46.71 43.22 46.19 43.87 46.19C44.51 46.19 45.03 46.71 45.03 47.35Z" fill="#FFFFFF" fill-opacity="1.000000" fill-rule="evenodd"/>
		<path id="Vector" d="M60.12 52.38C58.63 52.38 57.41 51.16 57.41 49.67L57.41 48.12C57.41 46.63 58.63 45.41 60.12 45.41C61.61 45.41 62.83 46.63 62.83 48.12L62.83 49.67C62.83 51.16 61.61 52.38 60.12 52.38Z" fill="#4B3F4E" fill-opacity="1.000000" fill-rule="nonzero"/>
		<path id="Vector" d="M60.12 45.41C59.99 45.41 59.86 45.44 59.74 45.45L59.74 49.29C59.74 50.14 60.43 50.83 61.29 50.83C62.14 50.83 62.83 50.14 62.83 49.29L62.83 48.12C62.83 46.63 61.61 45.41 60.12 45.41Z" fill="#5D5360" fill-opacity="1.000000" fill-rule="nonzero"/>
		<path id="Vector" d="M61.29 47.35C61.29 47.99 60.77 48.51 60.12 48.51C59.48 48.51 58.96 47.99 58.96 47.35C58.96 46.71 59.48 46.19 60.12 46.19C60.77 46.19 61.29 46.71 61.29 47.35Z" fill="#FFFFFF" fill-opacity="1.000000" fill-rule="evenodd"/>
		<path id="Vector" d="M70.87 54.13C71.68 54.97 73.1 54.6 73.44 53.49C73.69 52.65 73.94 51.51 74.1 50.08C72.58 49.32 71.28 46.9 70.48 42.8C69.03 35.35 67 31.19 61.29 32.25C70 34.86 65.26 48.32 70.87 54.13Z" fill="#824641" fill-opacity="1.000000" fill-rule="nonzero"/>
		<path id="Vector" d="M43.06 65.03L46.73 65.03C46.73 65.03 40.29 60.7 39.22 53.06C37.15 38.19 41.09 33.74 44.5 32.6C43.96 32.62 43.4 32.53 42.7 32.25L34.96 32.25L33.93 51.7C34.58 59.35 39.32 63.51 43.06 65.03Z" fill="#E7C9A5" fill-opacity="1.000000" fill-rule="nonzero"/>
		<path id="Vector" d="M42.7 32.25C33.99 34.86 38.73 48.32 33.12 54.13C32.31 54.97 30.89 54.6 30.55 53.49C30.11 52.02 29.67 49.7 29.74 46.38C29.83 41.83 28 41.54 28 41.54C28 41.54 30.32 30.7 37.29 30.7C39.61 30.7 42.7 32.25 42.7 32.25Z" fill="#965A50" fill-opacity="1.000000" fill-rule="nonzero"/>
		<path id="Vector" d="M42.45 32.13C41.66 31.77 39.21 30.7 37.29 30.7C30.32 30.7 28 41.54 28 41.54C28 41.54 29.83 41.83 29.74 46.38C29.74 46.44 29.74 46.5 29.74 46.56C34.19 29.66 41.04 31.54 42.45 32.13Z" fill="#824641" fill-opacity="1.000000" fill-rule="nonzero"/>
		<path id="Vector" d="M60.51 65.54C60.51 68.96 56.7 71.74 52 71.74C47.29 71.74 43.48 68.96 43.48 65.54C43.48 62.12 47.29 59.35 52 59.35C56.7 59.35 60.51 62.12 60.51 65.54Z" fill="#BC8E78" fill-opacity="1.000000" fill-rule="evenodd"/>
		<path id="Vector" d="M48.12 65.54L48.12 69.41C48.12 71.55 49.86 73.29 52 73.29C54.13 73.29 55.87 71.55 55.87 69.41L55.87 65.54L48.12 65.54Z" fill="#FF8087" fill-opacity="1.000000" fill-rule="nonzero"/>
		<path id="Vector" d="M48.12 68.57C49.24 68.43 50.3 68.09 51.22 67.57L51.22 68.64C51.22 69.07 51.57 69.41 52 69.41C52.42 69.41 52.77 69.07 52.77 68.64L52.77 67.56C53.68 68.08 54.74 68.43 55.87 68.57L55.87 65.54L48.12 65.54L48.12 68.57Z" fill="#E6646E" fill-opacity="1.000000" fill-rule="nonzero"/>
		<path id="Vector" d="M57.03 58.58L46.96 58.58C43.76 58.58 41.16 60.48 41.16 62.83C41.16 65.19 43.76 67.09 46.96 67.09C48.58 67.09 50.04 66.61 51.09 65.83C51.35 65.63 51.67 65.53 51.99 65.53C52.32 65.53 52.64 65.63 52.9 65.83C53.95 66.61 55.41 67.09 57.03 67.09C60.23 67.09 62.83 65.19 62.83 62.83C62.83 60.48 60.23 58.58 57.03 58.58Z" fill="#D4AF91" fill-opacity="1.000000" fill-rule="nonzero"/>
		<path id="Vector" d="M52 55.48C54.56 55.48 56.64 56.87 56.64 58.58C56.64 60.23 54.69 61.09 53.28 61.74C52.46 62.11 51.53 62.11 50.71 61.74C49.3 61.09 47.35 60.23 47.35 58.58C47.35 56.87 49.43 55.48 52 55.48Z" fill="#5D5360" fill-opacity="1.000000" fill-rule="nonzero"/>
		<path id="Vector" d="M49.65 57.73C49.54 56.75 50.23 55.71 50.23 55.71C48.54 56.18 47.35 57.28 47.35 58.58C47.35 60.22 49.3 61.09 50.71 61.74C51.53 62.11 52.46 62.11 53.28 61.74C53.58 61.6 53.91 61.45 54.24 61.28C52.33 60.95 49.87 59.69 49.65 57.73Z" fill="#4B3F4E" fill-opacity="1.000000" fill-rule="nonzero"/>
	</g>
</svg>
