<svg width="104.000000" height="104.000000" viewBox="0 0 104 104" fill="none" xmlns="http://www.w3.org/2000/svg" xmlns:xlink="http://www.w3.org/1999/xlink">
	<desc>
			Created with Pixso.
	</desc>
	<defs>
		<clipPath id="clip1_160">
			<rect id="fi_875011" rx="0.000000" width="47.000000" height="47.000000" transform="translate(28.500000 28.500000)" fill="white" fill-opacity="0"/>
		</clipPath>
	</defs>
	<circle id="Ellipse 1" cx="52.000000" cy="52.000000" r="52.000000" fill="#FFFFFF" fill-opacity="1.000000"/>
	<rect id="fi_875011" rx="0.000000" width="47.000000" height="47.000000" transform="translate(28.500000 28.500000)" fill="#FFFFFF" fill-opacity="0"/>
	<g clip-path="url(#clip1_160)">
		<path id="Vector" d="M61.01 37.28L56.8 40.34L55.2 52L57.18 63.59L61.01 66.71C62.51 66.48 63.97 66.12 65.34 65.62L65.34 38.37C63.97 37.87 62.51 37.51 61.01 37.28Z" fill="#EFEDEE" fill-opacity="1.000000" fill-rule="nonzero"/>
		<path id="Vector" d="M61.42 64.76C60.6 64.89 59.77 64.97 58.93 65.01L61.01 66.71C62.51 66.48 63.97 66.12 65.34 65.62L65.34 63.83C64.08 64.24 62.77 64.56 61.42 64.76Z" fill="#D2D2D2" fill-opacity="1.000000" fill-rule="nonzero"/>
		<path id="Vector" d="M75.49 55.65L75.11 54.98L75.82 54.2C75.93 53.49 76 52.75 76 52C76 45.47 71.47 40.61 65.34 38.38C63.08 42.21 61.86 46.96 61.86 52C61.86 57.03 63.08 61.78 65.34 65.62C70.26 63.82 74.15 60.33 75.49 55.65Z" fill="#FA9F6A" fill-opacity="1.000000" fill-rule="nonzero"/>
		<path id="Vector" d="M33.26 58.55C30.21 60.47 28 58.97 28 52C28 45.02 30.21 43.52 33.26 45.44L33.26 58.55Z" fill="#3A484A" fill-opacity="1.000000" fill-rule="nonzero"/>
		<path id="Vector" d="M36.94 48.88L36.94 55.11C35.64 56.66 34.39 57.84 33.26 58.55C32.36 57.52 31.83 55.42 31.83 52C31.83 48.57 32.36 46.47 33.26 45.44C34.39 46.15 35.64 47.33 36.94 48.88Z" fill="#E0712F" fill-opacity="1.000000" fill-rule="nonzero"/>
		<path id="Vector" d="M46.89 39.43C42.28 33.63 48.52 31.09 54.88 33.3L46.89 39.43Z" fill="#3A484A" fill-opacity="1.000000" fill-rule="nonzero"/>
		<path id="Vector" d="M46.89 64.56C42.28 70.36 48.52 72.9 54.88 70.69L46.89 64.56Z" fill="#3A484A" fill-opacity="1.000000" fill-rule="nonzero"/>
		<path id="Vector" d="M61.01 37.28L46.89 39.43C46.89 39.43 48.69 34.69 54.88 33.3C57.06 34.05 59.24 35.36 61.01 37.28Z" fill="#E0712F" fill-opacity="1.000000" fill-rule="nonzero"/>
		<path id="Vector" d="M61.01 66.71L46.89 64.56C46.89 64.56 48.69 69.3 54.88 70.69C57.06 69.94 59.24 68.63 61.01 66.71Z" fill="#FA9F6A" fill-opacity="1.000000" fill-rule="nonzero"/>
		<path id="Vector" d="M46.89 39.43L46.89 39.43C46.89 39.44 46.89 39.44 46.89 39.44L43.84 42.64L41.6 52.94L43.84 61.29L46.89 64.56C48.8 65.49 50.79 66.14 52.8 66.53L52.8 37.46C50.79 37.85 48.8 38.5 46.89 39.43Z" fill="#EFEDEE" fill-opacity="1.000000" fill-rule="nonzero"/>
		<path id="Vector" d="M52.69 64.57L52.69 64.57C50.55 64.16 48.44 63.47 46.41 62.47C45.5 62.03 44.61 61.52 43.75 60.96L43.84 61.29L46.89 64.56C47.37 64.79 47.85 65.01 48.34 65.21C49.8 65.8 51.29 66.24 52.8 66.53L52.8 64.59C52.76 64.59 52.72 64.58 52.69 64.57Z" fill="#D2D2D2" fill-opacity="1.000000" fill-rule="nonzero"/>
		<path id="Vector" d="M57.55 52C57.55 57.33 58.76 62.43 61.01 66.71C58.37 67.11 55.57 67.07 52.8 66.53L52.8 66.53C50.18 62.56 48.75 57.44 48.75 52C48.75 46.55 50.18 41.43 52.8 37.46L52.8 37.46C55.57 36.92 58.37 36.88 61.01 37.28C58.77 41.56 57.55 46.66 57.55 52Z" fill="#FA9F6A" fill-opacity="1.000000" fill-rule="nonzero"/>
		<path id="Vector" d="M44.44 52C44.44 56.46 45.29 60.76 46.89 64.56C42.69 62.5 38.88 59.06 36.2 54.01C35.53 52.75 35.53 51.24 36.2 49.98C38.88 44.93 42.69 41.49 46.89 39.43C45.29 43.23 44.44 47.53 44.44 52Z" fill="#FA9F6A" fill-opacity="1.000000" fill-rule="nonzero"/>
		<path id="Vector" d="M65.93 65.39C67.9 64.6 69.76 63.51 71.35 62.09C71.36 62.09 71.36 62.08 71.37 62.07C72.1 61.42 72.76 60.71 73.35 59.92C73.36 59.92 73.36 59.91 73.37 59.9C74.11 58.91 74.72 57.82 75.16 56.65C73.14 59.8 69.88 62.19 66.02 63.6C65.52 63.78 65.02 63.94 64.52 64.08C64.77 64.61 65.04 65.12 65.34 65.62C65.53 65.54 65.73 65.47 65.93 65.39Z" fill="#E0712F" fill-opacity="1.000000" fill-rule="nonzero"/>
		<path id="Vector" d="M52.69 64.57C52.3 64.5 51.91 64.41 51.52 64.32C51.91 65.09 52.33 65.83 52.8 66.53C55.17 66.99 57.61 67.1 60.01 66.84C60.35 66.8 60.68 66.76 61.01 66.71C60.71 66.13 60.42 65.53 60.16 64.92C57.72 65.16 55.19 65.06 52.69 64.57Z" fill="#E0712F" fill-opacity="1.000000" fill-rule="nonzero"/>
		<path id="Vector" d="M46.89 64.56C46.58 63.82 46.3 63.06 46.05 62.29C42.06 60.26 38.44 57.05 35.72 52.48C35.73 52.52 35.73 52.57 35.74 52.62C35.81 53.1 35.97 53.58 36.2 54.01C36.92 55.37 37.76 56.68 38.71 57.89C41.05 60.88 43.87 63.08 46.89 64.56Z" fill="#E0712F" fill-opacity="1.000000" fill-rule="nonzero"/>
		<path id="Vector" d="M75.6 54.19C75.59 54.19 74.48 54.3 73.31 53.98C72.92 53.87 72.53 54.1 72.42 54.49C72.31 54.87 72.54 55.27 72.93 55.38C73.77 55.61 74.57 55.66 75.11 55.66C75.26 55.66 75.39 55.65 75.49 55.65C75.63 55.18 75.73 54.69 75.82 54.2C75.75 54.19 75.68 54.18 75.6 54.19Z" fill="#3A484A" fill-opacity="1.000000" fill-rule="nonzero"/>
		<path id="Vector" d="M68.83 53.66C68.73 53.66 68.63 53.64 68.53 53.6C68.16 53.44 68 53.01 68.17 52.64C68.48 51.94 69.1 51.41 69.85 51.18C70.61 50.95 71.42 51.06 72.07 51.46C72.4 51.67 72.51 52.12 72.3 52.46C72.08 52.8 71.64 52.9 71.3 52.69C71 52.51 70.63 52.46 70.27 52.57C69.92 52.68 69.63 52.92 69.49 53.24C69.37 53.51 69.1 53.66 68.83 53.66Z" fill="#3A484A" fill-opacity="1.000000" fill-rule="nonzero"/>
	</g>
</svg>
