<svg width="104.000000" height="104.000000" viewBox="0 0 104 104" fill="none" xmlns="http://www.w3.org/2000/svg" xmlns:xlink="http://www.w3.org/1999/xlink">
	<desc>
			Created with Pixso.
	</desc>
	<defs>
		<clipPath id="clip1_653">
			<rect id="fi_6363517" rx="0.000000" width="47.000000" height="47.000000" transform="translate(28.500000 28.500000)" fill="white" fill-opacity="0"/>
		</clipPath>
	</defs>
	<circle id="Ellipse 1" cx="52.000000" cy="52.000000" r="52.000000" fill="#FFFFFF" fill-opacity="1.000000"/>
	<rect id="fi_6363517" rx="0.000000" width="47.000000" height="47.000000" transform="translate(28.500000 28.500000)" fill="#FFFFFF" fill-opacity="0"/>
	<g clip-path="url(#clip1_653)">
		<path id="Vector" d="M40.67 35.83L43.64 40.78L46.81 42.94L47.21 42.55L44.86 35.68L43.28 32.25L41.99 31.72L40.26 31.89L39.68 33.6L39.64 33.76L40.67 35.83Z" fill="#FF9BA1" fill-opacity="1.000000" fill-rule="nonzero"/>
		<path id="Vector" d="M46.76 42.6C43.31 39.63 41.11 35.97 39.86 33.38L39.86 33.07L39.68 33.6L39.1 35.88L39.1 36.84C40.12 38.94 41.91 41.93 44.73 44.35C45.01 44.59 45.37 44.35 45.37 44.35L47.03 42.73C46.94 42.71 46.85 42.67 46.76 42.6Z" fill="#FF7F87" fill-opacity="1.000000" fill-rule="nonzero"/>
		<path id="Vector" d="M64.23 33.1L63.51 31.87L61.77 31.72L60.18 33.37L57.95 38.1L56.88 42.65L58.94 44.35L59.26 44.35C62.08 41.93 63.87 38.94 64.89 36.84L65.2 35.97L64.23 33.1Z" fill="#FF9BA1" fill-opacity="1.000000" fill-rule="nonzero"/>
		<path id="Vector" d="M63.76 33.55C63.89 33.34 64.02 33.14 64.15 32.96L63.51 31.87L61.77 31.72L60.18 33.37L57.95 38.1L56.88 42.65L58.94 44.35L59.26 44.35C59.39 44.24 59.51 44.13 59.63 44.02C60.66 40.85 62.4 35.79 63.76 33.55Z" fill="#FF7F87" fill-opacity="1.000000" fill-rule="nonzero"/>
		<path id="Vector" d="M65.72 28.29L64.38 28.29L61.7 31.18L61.04 32.34L61.45 32.75C61.52 32.68 61.6 32.61 61.67 32.55C62.39 31.94 63.51 32.32 63.72 33.24C64.42 36.32 65.99 40.16 69.47 43.02C70.43 43.8 71.89 43.19 72 41.95C72.38 37.8 72.21 29.9 65.72 28.29Z" fill="#E39B74" fill-opacity="1.000000" fill-rule="nonzero"/>
		<path id="Vector" d="M61.45 32.75C62.5 30.69 63.9 28.95 65.72 28.29C64.96 28.1 64.12 28 63.17 28C57.69 28 55.39 36.89 54.59 41.19L54.91 42.03L56.55 42.73L57.26 42.55C57.97 40.3 59.51 35.66 60.67 33.74C60.92 33.34 61.18 33.02 61.45 32.75Z" fill="#DD8858" fill-opacity="1.000000" fill-rule="nonzero"/>
		<path id="Vector" d="M42.48 28.29L41.06 28.29L37.13 31.12C37.13 31.12 36.38 34.4 36.08 34.98C35.78 35.56 35.75 38.75 35.72 39.07C35.68 39.39 36.16 41.46 36.16 41.46C38.52 38.86 39.69 35.79 40.27 33.24C40.48 32.32 41.6 31.94 42.32 32.55C42.67 32.84 43.01 33.23 43.32 33.74C44.48 35.66 46.02 40.3 46.73 42.55L47.41 42.55L49.05 41.72L49.4 41.19C48.69 37.35 46.78 29.86 42.48 28.29Z" fill="#E39B74" fill-opacity="1.000000" fill-rule="nonzero"/>
		<path id="Vector" d="M42.48 28.29C41.96 28.1 41.41 28 40.82 28C31.83 28 31.57 37.32 31.99 41.95C32.1 43.19 33.56 43.8 34.52 43.02C35.12 42.52 35.66 42 36.16 41.46C35.84 37.2 36.24 29.84 42.48 28.29Z" fill="#DD8858" fill-opacity="1.000000" fill-rule="nonzero"/>
		<path id="Vector" d="M54.42 41.14L52.47 41.14L48.47 44.46L46.34 48.76C46.34 48.76 44.66 54.56 44.18 55.73L50.09 58.41L54.26 58.41L61.84 54.89L63.51 53.79C62.46 47.44 58.91 42.47 54.42 41.14Z" fill="#EAAE8E" fill-opacity="1.000000" fill-rule="nonzero"/>
		<path id="Vector" d="M47.3 53.59C46.89 53.59 46.56 53.25 46.56 52.84L46.56 50.73C46.56 50.32 46.89 49.99 47.3 49.99C47.71 49.99 48.05 50.32 48.05 50.73L48.05 52.84C48.05 53.25 47.71 53.59 47.3 53.59Z" fill="#544E55" fill-opacity="1.000000" fill-rule="nonzero"/>
		<path id="Vector" d="M56.69 53.59C56.28 53.59 55.94 53.25 55.94 52.84L55.94 50.73C55.94 50.32 56.28 49.99 56.69 49.99C57.1 49.99 57.43 50.32 57.43 50.73L57.43 52.84C57.43 53.25 57.1 53.59 56.69 53.59Z" fill="#544E55" fill-opacity="1.000000" fill-rule="nonzero"/>
		<path id="Vector" d="M41.91 54.7C42.82 54.02 43.77 53.3 43.77 53.3L45.42 53.3C46.58 47.19 50.06 42.44 54.42 41.14C53.64 40.9 52.83 40.78 52 40.78C46.4 40.78 41.72 46.33 40.48 53.79L41.13 54.35L41.91 54.7Z" fill="#E39B74" fill-opacity="1.000000" fill-rule="nonzero"/>
		<path id="Vector" d="M65.24 73.69C63.67 70.22 61.73 67.37 59.54 65.36L58.6 64.99L57.29 65.36C57.29 65.36 54.45 67.21 54.36 67.21C54.26 67.21 49.43 67.11 49.43 67.11L47.21 66.15L43.52 70.94L42.45 74.22L42.98 75.55C42.98 75.55 43.29 75.75 43.66 76L47.14 76L48.24 75.29L55.81 75.29L56.85 76L63.77 76C64.95 76 65.73 74.77 65.24 73.69Z" fill="#E39B74" fill-opacity="1.000000" fill-rule="nonzero"/>
		<path id="Vector" d="M43.07 73.69C44.4 70.77 45.98 68.29 47.75 66.39L45.39 65.36L44.45 65.36C42.26 67.37 40.32 70.22 38.75 73.69C38.26 74.77 39.04 76 40.22 76L44.55 76C43.37 76 42.59 74.77 43.07 73.69Z" fill="#DD8858" fill-opacity="1.000000" fill-rule="nonzero"/>
		<path id="Vector" d="M59.63 53.02C57.94 53.02 56.37 53.43 55.09 54.14L54.45 54.66L49.55 54.66L48.79 54.14C47.73 53.55 46.47 53.17 45.11 53.05L43.52 53.41L41.27 55.75C41.27 55.75 40.46 59.3 40.48 59.37C40.5 59.44 42.26 62.8 42.79 63.26C43.32 63.72 47.16 65.19 47.16 65.19C47.16 65.19 50.13 66.18 50.09 66.35C50.06 66.52 52 67.53 52 67.53L53.8 67.74C55.16 67.49 56.4 66.99 57.41 66.29C58.32 65.67 59.37 65.29 60.46 65.21C64.57 64.89 67.49 62.12 67.49 59.13C67.49 55.75 63.97 53.02 59.63 53.02Z" fill="#FEE6C1" fill-opacity="1.000000" fill-rule="nonzero"/>
		<path id="Vector" d="M50.13 65.92C49.35 65.22 48.42 64.78 47.42 64.62C43.76 64.03 41.25 61.08 41.48 58C41.63 55.83 43.07 54.01 45.11 53.05C44.83 53.03 44.54 53.01 44.25 53.01C39.91 53.01 36.39 55.75 36.39 59.13C36.39 62.17 39.36 64.89 43.41 65.21C44.51 65.29 45.56 65.66 46.47 66.29C47.93 67.29 49.84 67.9 51.94 67.9C52.58 67.9 53.2 67.84 53.8 67.74C52.38 67.43 51.12 66.79 50.13 65.92Z" fill="#FCD79B" fill-opacity="1.000000" fill-rule="nonzero"/>
		<path id="Vector" d="M31.46 60.45C31.2 60.15 31.23 59.69 31.53 59.43C36.46 55.11 43.19 56.26 43.48 56.31C43.87 56.38 44.13 56.76 44.06 57.15C43.99 57.54 43.61 57.8 43.22 57.73C43.16 57.72 36.88 56.66 32.48 60.52C32.18 60.78 31.73 60.75 31.46 60.45Z" fill="#FCCC80" fill-opacity="1.000000" fill-rule="nonzero"/>
		<path id="Vector" d="M35.62 64.87C35.28 64.65 35.19 64.21 35.41 63.87C38 59.93 42.71 59 42.91 58.96C43.3 58.89 43.68 59.14 43.75 59.54C43.83 59.93 43.57 60.31 43.18 60.38C43.14 60.39 38.86 61.25 36.62 64.67C36.4 65 35.95 65.09 35.62 64.87Z" fill="#FCCC80" fill-opacity="1.000000" fill-rule="nonzero"/>
		<path id="Vector" d="M71.51 60.52C67.09 56.65 60.83 57.72 60.77 57.73C60.38 57.81 60 57.54 59.93 57.15C59.86 56.76 60.12 56.38 60.51 56.31C60.8 56.26 67.53 55.11 72.46 59.43C72.76 59.69 72.79 60.15 72.53 60.45C72.26 60.75 71.81 60.78 71.51 60.52Z" fill="#FCCC80" fill-opacity="1.000000" fill-rule="nonzero"/>
		<path id="Vector" d="M67.37 64.67C65.11 61.24 60.86 60.39 60.81 60.38C60.42 60.31 60.16 59.93 60.24 59.54C60.31 59.14 60.69 58.89 61.08 58.96C61.28 59 65.99 59.93 68.58 63.87C68.8 64.21 68.71 64.65 68.37 64.87C68.04 65.09 67.59 65 67.37 64.67Z" fill="#FCCC80" fill-opacity="1.000000" fill-rule="nonzero"/>
		<path id="Vector" d="M52 58.98C52 58.98 51.65 60.9 50.09 61.48L50.24 63.28C50.27 63.67 50.59 63.97 50.98 63.97L53.01 63.97C53.4 63.97 53.72 63.67 53.75 63.28L53.9 61.48C52.34 60.9 52 58.98 52 58.98Z" fill="#FEF0DB" fill-opacity="1.000000" fill-rule="nonzero"/>
		<path id="Vector" d="M58.07 58.61C57.69 58.5 57.29 58.72 57.18 59.11C57.16 59.18 56.64 60.92 54.85 60.92C53.25 60.92 52.79 59.24 52.72 58.9L52.72 56.67C52.72 56.27 52.4 55.94 52 55.94C51.6 55.94 51.27 56.27 51.27 56.67L51.27 58.9C51.2 59.24 50.75 60.92 49.14 60.92C47.36 60.92 46.83 59.19 46.81 59.11C46.7 58.72 46.31 58.5 45.92 58.6C45.54 58.71 45.31 59.11 45.42 59.49C45.69 60.49 46.82 62.37 49.14 62.37C50.52 62.37 51.43 61.64 52 60.81C52.56 61.64 53.47 62.37 54.85 62.37C57.17 62.37 58.3 60.49 58.57 59.49C58.68 59.11 58.46 58.71 58.07 58.61Z" fill="#FCCC80" fill-opacity="1.000000" fill-rule="nonzero"/>
		<path id="Vector" d="M51.12 54.66L52.49 57.33L53.45 57.33C54.49 56.67 55.2 55.43 55.2 54.55C55.2 53.34 53.87 53.25 52.18 53.25L51.12 54.66Z" fill="#FF9BA1" fill-opacity="1.000000" fill-rule="nonzero"/>
		<path id="Vector" d="M51.7 54.55C51.7 53.67 52.41 53.38 53.45 53.29C53.01 53.25 52.52 53.25 52 53.25C50.22 53.25 48.79 53.3 48.79 54.55C48.79 55.8 50.22 57.78 52 57.78C52.52 57.78 53.01 57.6 53.45 57.33C52.41 56.67 51.7 55.43 51.7 54.55Z" fill="#FF636E" fill-opacity="1.000000" fill-rule="nonzero"/>
		<path id="Vector" d="M54.16 71.85L53.68 71.85L51.53 74.41L51.07 75.45L51.47 75.99L56.85 75.99C56.06 74.13 55.15 72.71 54.16 71.85Z" fill="#FEF0DB" fill-opacity="1.000000" fill-rule="nonzero"/>
		<path id="Vector" d="M54.16 71.85C53.47 71.26 52.74 70.94 52 70.94C50.17 70.94 48.49 72.82 47.14 76L51.47 76C52.26 74.13 53.17 72.71 54.16 71.85Z" fill="#FEE6C1" fill-opacity="1.000000" fill-rule="nonzero"/>
	</g>
</svg>
