<svg width="104.000000" height="104.000000" viewBox="0 0 104 104" fill="none" xmlns="http://www.w3.org/2000/svg" xmlns:xlink="http://www.w3.org/1999/xlink">
	<desc>
			Created with Pixso.
	</desc>
	<defs>
		<clipPath id="clip1_462">
			<rect id="fi_10754665" rx="0.000000" width="47.000000" height="47.000000" transform="translate(28.500000 28.500000)" fill="white" fill-opacity="0"/>
		</clipPath>
	</defs>
	<circle id="Ellipse 1" cx="52.000000" cy="52.000000" r="52.000000" fill="#FFFFFF" fill-opacity="1.000000"/>
	<rect id="fi_10754665" rx="0.000000" width="47.000000" height="47.000000" transform="translate(28.500000 28.500000)" fill="#FFFFFF" fill-opacity="0"/>
	<g clip-path="url(#clip1_462)">
		<path id="Vector" d="M71.42 52C71.42 62.72 62.72 71.42 52 71.42C41.27 71.42 32.57 62.72 32.57 52C32.57 41.27 41.27 32.57 52 32.57C62.72 32.57 71.42 41.27 71.42 52Z" fill="#8C3F0A" fill-opacity="1.000000" fill-rule="evenodd"/>
		<path id="Vector" d="M67.26 52C67.26 60.43 60.43 67.26 51.99 67.26C43.56 67.26 36.73 60.43 36.73 52C36.73 43.56 43.56 36.73 51.99 36.73C60.43 36.73 67.26 43.56 67.26 52Z" fill="#7C3108" fill-opacity="1.000000" fill-rule="evenodd"/>
		<path id="Vector" d="M63.71 52C63.71 58.47 58.47 63.71 52 63.71C45.52 63.71 40.28 58.47 40.28 52C40.28 45.52 45.52 40.28 52 40.28C58.47 40.28 63.71 45.52 63.71 52Z" fill="#6D2E03" fill-opacity="1.000000" fill-rule="evenodd"/>
		<path id="Vector" d="M51 47.78C51 50.15 49.07 52.08 46.7 52.08C44.32 52.08 42.4 50.15 42.4 47.78C42.4 45.4 44.32 43.47 46.7 43.47C49.07 43.47 51 45.4 51 47.78Z" fill="#F1F2F2" fill-opacity="1.000000" fill-rule="evenodd"/>
		<path id="Vector" d="M49.63 47.78C49.63 49.39 48.31 50.7 46.7 50.7C45.08 50.7 43.77 49.39 43.77 47.78C43.77 46.16 45.08 44.85 46.7 44.85C48.31 44.85 49.63 46.16 49.63 47.78Z" fill="#D1D3D4" fill-opacity="1.000000" fill-rule="evenodd"/>
		<path id="Vector" d="M61.59 47.78C61.59 50.15 59.67 52.08 57.29 52.08C54.92 52.08 52.99 50.15 52.99 47.78C52.99 45.4 54.92 43.47 57.29 43.47C59.67 43.47 61.59 45.4 61.59 47.78Z" fill="#F1F2F2" fill-opacity="1.000000" fill-rule="evenodd"/>
		<path id="Vector" d="M60.22 47.78C60.22 49.39 58.91 50.7 57.29 50.7C55.68 50.7 54.36 49.39 54.36 47.78C54.36 46.16 55.68 44.85 57.29 44.85C58.91 44.85 60.22 46.16 60.22 47.78Z" fill="#D1D3D4" fill-opacity="1.000000" fill-rule="evenodd"/>
		<path id="Vector" d="M51.99 60.52C48.52 60.52 45.7 57.7 45.7 54.22L45.7 52.69C45.7 49.21 48.52 46.39 51.99 46.39C55.47 46.39 58.29 49.21 58.29 52.69L58.29 54.22C58.29 57.7 55.47 60.52 51.99 60.52Z" fill="#F1F2F2" fill-opacity="1.000000" fill-rule="nonzero"/>
		<path id="Vector" d="M47.06 51.53C47.02 51.53 46.98 51.52 46.94 51.51C46.85 51.48 46.77 51.41 46.72 51.33C46.68 51.24 46.67 51.13 46.7 51.04C46.76 50.85 46.97 50.73 47.17 50.79C47.36 50.86 47.47 51.06 47.41 51.26L47.41 51.26C47.37 51.42 47.22 51.53 47.06 51.53ZM47.7 50.18C47.63 50.18 47.55 50.16 47.49 50.11C47.41 50.06 47.35 49.97 47.34 49.87C47.31 49.78 47.34 49.68 47.39 49.6C48.43 48.06 50.15 47.14 52 47.14C53.28 47.14 54.53 47.59 55.52 48.41C55.6 48.47 55.65 48.56 55.66 48.66C55.67 48.76 55.64 48.86 55.57 48.94C55.45 49.09 55.2 49.11 55.04 48.99C54.19 48.28 53.11 47.89 52 47.89C50.4 47.89 48.91 48.68 48.01 50.01C47.94 50.12 47.83 50.18 47.7 50.18Z" fill="#FFFFFF" fill-opacity="1.000000" fill-rule="nonzero"/>
		<path id="Vector" d="M55.41 47.4C56.05 48.38 56.42 49.55 56.42 50.81L56.42 52.34C56.42 55.82 53.6 58.64 50.12 58.64C48.86 58.64 47.69 58.27 46.7 57.64C47.83 59.37 49.78 60.52 51.99 60.52C55.47 60.52 58.29 57.7 58.29 54.22L58.29 52.69C58.29 50.47 57.14 48.52 55.41 47.4Z" fill="#E6E7E8" fill-opacity="1.000000" fill-rule="nonzero"/>
		<path id="Vector" d="M55.95 47.79C56.83 48.87 57.35 50.25 57.35 51.75L57.35 53.28C57.35 56.76 54.54 59.58 51.06 59.58C49.56 59.58 48.18 59.05 47.1 58.18C48.25 59.6 50.02 60.52 52 60.52C55.47 60.52 58.29 57.7 58.29 54.22L58.29 52.69C58.29 50.71 57.38 48.94 55.95 47.79Z" fill="#D1D3D4" fill-opacity="1.000000" fill-rule="nonzero"/>
		<path id="Vector" d="M49.83 50.81C49.83 51.27 49.46 51.64 49 51.64C48.54 51.64 48.17 51.27 48.17 50.81C48.17 50.35 48.54 49.98 49 49.98C49.46 49.98 49.83 50.35 49.83 50.81Z" fill="#58595B" fill-opacity="1.000000" fill-rule="evenodd"/>
		<path id="Vector" d="M55.74 50.81C55.74 51.27 55.37 51.64 54.91 51.64C54.45 51.64 54.08 51.27 54.08 50.81C54.08 50.35 54.45 49.98 54.91 49.98C55.37 49.98 55.74 50.35 55.74 50.81Z" fill="#58595B" fill-opacity="1.000000" fill-rule="evenodd"/>
		<path id="Vector" d="M52.65 58.2C52.39 58.2 52.15 58.08 52 57.9C51.84 58.08 51.6 58.2 51.34 58.2C50.87 58.2 50.48 57.81 50.48 57.34L50.48 56.5C50.48 56.39 50.57 56.3 50.69 56.3C50.8 56.3 50.89 56.39 50.89 56.5L50.89 57.34C50.89 57.59 51.09 57.79 51.34 57.79C51.59 57.79 51.79 57.59 51.79 57.34L51.79 55.67C51.79 55.56 51.88 55.46 52 55.46C52.11 55.46 52.2 55.56 52.2 55.67L52.2 57.34C52.2 57.59 52.4 57.79 52.65 57.79C52.9 57.79 53.1 57.59 53.1 57.34L53.1 56.5C53.1 56.39 53.19 56.3 53.3 56.3C53.42 56.3 53.51 56.39 53.51 56.5L53.51 57.34C53.51 57.81 53.12 58.2 52.65 58.2Z" fill="#808285" fill-opacity="1.000000" fill-rule="nonzero"/>
		<path id="Vector" d="M53.9 56.68C52.74 56.68 51.79 55.94 51.79 55.04C51.79 54.92 51.88 54.83 51.99 54.83C52.11 54.83 52.2 54.92 52.2 55.04C52.2 55.71 52.96 56.26 53.9 56.26C54.02 56.26 54.11 56.36 54.11 56.47C54.11 56.58 54.02 56.68 53.9 56.68Z" fill="#D1D3D4" fill-opacity="1.000000" fill-rule="nonzero"/>
		<path id="Vector" d="M50.09 56.68C49.97 56.68 49.88 56.58 49.88 56.47C49.88 56.36 49.97 56.26 50.09 56.26C51.03 56.26 51.79 55.71 51.79 55.04C51.79 54.92 51.88 54.83 52 54.83C52.11 54.83 52.2 54.92 52.2 55.04C52.2 55.94 51.25 56.68 50.09 56.68Z" fill="#D1D3D4" fill-opacity="1.000000" fill-rule="nonzero"/>
		<path id="Vector" d="M49.88 53.78C49.85 53.78 49.83 53.78 49.8 53.77L47.55 52.84C47.44 52.8 47.39 52.68 47.43 52.57C47.48 52.46 47.6 52.41 47.7 52.46L49.96 53.38C50.06 53.43 50.11 53.55 50.07 53.65C50.04 53.73 49.96 53.78 49.88 53.78Z" fill="#939598" fill-opacity="1.000000" fill-rule="nonzero"/>
		<path id="Vector" d="M47.59 56.16C47.51 56.16 47.42 56.11 47.4 56.02C47.36 55.91 47.42 55.79 47.53 55.76L49.85 55.02C49.96 54.98 50.07 55.04 50.11 55.15C50.14 55.26 50.08 55.38 49.97 55.41L47.66 56.15C47.64 56.16 47.61 56.16 47.59 56.16Z" fill="#939598" fill-opacity="1.000000" fill-rule="nonzero"/>
		<path id="Vector" d="M48.95 54.51L46.59 54.51C46.48 54.51 46.38 54.42 46.38 54.3C46.38 54.19 46.48 54.1 46.59 54.1L48.95 54.1C49.06 54.1 49.15 54.19 49.15 54.3C49.15 54.42 49.06 54.51 48.95 54.51Z" fill="#939598" fill-opacity="1.000000" fill-rule="nonzero"/>
		<path id="Vector" d="M54.11 53.78C54.03 53.78 53.95 53.73 53.92 53.65C53.88 53.55 53.93 53.43 54.03 53.38L56.29 52.46C56.39 52.41 56.51 52.46 56.56 52.57C56.6 52.68 56.55 52.8 56.44 52.84L54.19 53.77C54.16 53.78 54.14 53.78 54.11 53.78Z" fill="#939598" fill-opacity="1.000000" fill-rule="nonzero"/>
		<path id="Vector" d="M56.4 56.16C56.38 56.16 56.36 56.16 56.33 56.15L54.02 55.41C53.91 55.38 53.85 55.26 53.88 55.15C53.92 55.04 54.03 54.98 54.14 55.02L56.46 55.76C56.57 55.79 56.63 55.91 56.59 56.02C56.57 56.11 56.48 56.16 56.4 56.16Z" fill="#939598" fill-opacity="1.000000" fill-rule="nonzero"/>
		<path id="Vector" d="M57.4 54.51L55.04 54.51C54.93 54.51 54.84 54.42 54.84 54.3C54.84 54.19 54.93 54.1 55.04 54.1L57.4 54.1C57.51 54.1 57.61 54.19 57.61 54.3C57.61 54.42 57.51 54.51 57.4 54.51Z" fill="#939598" fill-opacity="1.000000" fill-rule="nonzero"/>
		<path id="Vector" d="M51.55 54.79L51.02 53.94C50.8 53.58 51.05 53.13 51.47 53.13L52.52 53.13C52.94 53.13 53.19 53.58 52.97 53.94L52.44 54.79C52.24 55.12 51.75 55.12 51.55 54.79Z" fill="#F2AD97" fill-opacity="1.000000" fill-rule="nonzero"/>
		<path id="Vector" d="M52.63 53.14C52.66 53.26 52.64 53.4 52.56 53.52L52.03 54.37C51.9 54.59 51.65 54.67 51.43 54.6L51.55 54.79C51.75 55.12 52.24 55.12 52.44 54.79L52.97 53.94C53.17 53.61 52.98 53.21 52.63 53.14Z" fill="#E59076" fill-opacity="1.000000" fill-rule="nonzero"/>
	</g>
</svg>
